<svg width="128" height="128" viewBox="0 0 128 128" fill="none" xmlns="http://www.w3.org/2000/svg">
  <rect width="128" height="128" rx="28" fill="#0A5F90"/>
  <path d="M64 18L97 30.5V57.5C97 78.355 82.995 97.437 64 104C45.005 97.437 31 78.355 31 57.5V30.5L64 18Z" fill="white"/>
  <path d="M59.25 39C59.25 36.3766 61.3766 34.25 64 34.25C66.6234 34.25 68.75 36.3766 68.75 39V50.75H70C72.0711 50.75 73.75 52.4289 73.75 54.5V70.5C73.75 72.5711 72.0711 74.25 70 74.25H58C55.9289 74.25 54.25 72.5711 54.25 70.5V54.5C54.25 52.4289 55.9289 50.75 58 50.75H59.25V39ZM64 39.25C63.3096 39.25 62.75 39.8096 62.75 40.5V50.75H65.25V40.5C65.25 39.8096 64.6904 39.25 64 39.25ZM60.75 56.75V68.25H67.25V56.75H60.75ZM66.75 72.5L76.5 82.25L73.25 85.5L64 76.25L54.75 85.5L51.5 82.25L61.25 72.5H66.75Z" fill="#0A5F90"/>
</svg>
