<?xml version="1.0" standalone="no"?>
<!DOCTYPE svg PUBLIC "-//W3C//DTD SVG 20010904//EN" "http://www.w3.org/TR/2001/REC-SVG-20010904/DTD/svg10.dtd">
<svg version="1.0" xmlns="http://www.w3.org/2000/svg"
  width="2000.000000pt" height="2000.000000pt" viewBox="0 0 2000.000000 2000.000000"
  preserveAspectRatio="xMidYMid meet">

  <g transform="translate(0.000000,2000.000000) scale(0.100000,-0.100000)"
    fill="#1e40af" stroke="none">
    <path
      d="M12735 18000 c-27 -4 -63 -12 -80 -18 -16 -6 -95 -15 -175 -21 -80
-5 -165 -17 -190 -25 -25 -9 -79 -20 -120 -25 -81 -9 -236 -46 -285 -66 -16
-7 -48 -16 -70 -20 -22 -4 -53 -15 -70 -25 -16 -10 -47 -21 -68 -25 -21 -4
-44 -14 -52 -21 -17 -17 -60 -34 -87 -34 -11 0 -31 -9 -45 -20 -14 -11 -41
-22 -62 -26 -20 -4 -43 -12 -51 -19 -8 -7 -34 -19 -57 -26 -24 -7 -43 -16 -43
-20 0 -4 -17 -13 -37 -19 -21 -7 -47 -21 -58 -30 -11 -10 -32 -22 -47 -25 -14
-4 -34 -15 -44 -26 -9 -10 -23 -19 -30 -19 -7 0 -20 -8 -30 -17 -16 -18 -65
-46 -133 -78 -18 -9 -42 -25 -54 -36 -11 -10 -26 -19 -33 -19 -7 0 -17 -6 -21
-14 -4 -7 -19 -19 -32 -26 -20 -10 -105 -75 -227 -175 -18 -14 -34 -25 -38
-25 -3 0 -25 -20 -48 -45 -23 -25 -47 -45 -52 -45 -5 0 -19 -10 -31 -22 -12
-13 -48 -45 -80 -73 -91 -78 -184 -164 -251 -232 -34 -35 -66 -63 -73 -63 -6
0 -11 -5 -11 -11 0 -12 -170 -179 -182 -179 -5 0 -8 -5 -8 -11 0 -12 -219
-229 -232 -229 -4 0 -8 -5 -8 -12 0 -6 -27 -36 -60 -67 -67 -63 -80 -74 -97
-93 -16 -16 14 13 -307 -310 -152 -153 -280 -278 -286 -278 -5 0 -10 -5 -10
-11 0 -8 -529 -549 -653 -667 -22 -21 -118 -118 -215 -217 -98 -99 -245 -247
-328 -330 -169 -167 -368 -375 -459 -480 -33 -37 -81 -90 -107 -117 -27 -27
-48 -52 -48 -55 0 -3 -12 -20 -27 -38 -16 -18 -39 -50 -53 -70 -14 -20 -33
-46 -43 -58 -17 -21 -50 -70 -73 -109 -6 -11 -21 -28 -33 -39 -11 -11 -21 -26
-21 -33 0 -8 -7 -19 -16 -27 -16 -13 -35 -47 -72 -124 -11 -22 -27 -46 -36
-54 -9 -7 -16 -21 -16 -30 0 -10 -11 -32 -25 -51 -14 -19 -25 -39 -25 -46 0
-6 -8 -22 -19 -35 -10 -13 -23 -41 -30 -61 -7 -20 -19 -42 -27 -48 -7 -7 -14
-19 -14 -28 0 -8 -11 -38 -24 -66 -28 -59 -58 -142 -75 -204 -7 -24 -18 -45
-26 -48 -7 -3 -16 -26 -20 -52 -4 -26 -15 -63 -25 -82 -10 -19 -23 -57 -30
-83 -6 -27 -17 -59 -24 -70 -8 -12 -17 -44 -21 -72 -4 -27 -13 -66 -21 -85 -8
-19 -19 -68 -25 -109 -6 -41 -17 -93 -24 -116 -7 -22 -16 -83 -20 -135 -3 -52
-15 -130 -26 -172 -17 -71 -19 -115 -19 -506 0 -357 3 -437 15 -472 8 -24 20
-97 26 -164 6 -67 17 -143 24 -171 8 -27 19 -80 25 -116 5 -37 16 -79 24 -94
8 -15 18 -51 22 -79 3 -28 15 -67 25 -86 11 -19 22 -50 25 -70 4 -19 15 -45
24 -57 10 -13 21 -39 25 -59 3 -20 14 -48 23 -62 15 -24 37 -80 68 -171 8 -25
20 -52 28 -60 8 -9 18 -29 22 -46 4 -16 15 -41 26 -54 10 -13 18 -29 18 -37 0
-7 11 -25 24 -41 14 -16 28 -41 31 -56 4 -15 11 -27 16 -27 6 0 19 -19 30 -42
27 -57 49 -97 77 -135 12 -17 22 -35 22 -40 0 -6 9 -18 20 -28 11 -10 20 -23
20 -29 1 -6 14 -27 30 -46 17 -19 30 -40 30 -47 0 -7 6 -13 13 -13 6 0 20 -12
29 -28 9 -15 35 -53 57 -86 23 -32 41 -59 41 -61 0 -2 19 -24 43 -48 23 -25
71 -78 107 -118 106 -120 420 -429 436 -429 4 0 17 -10 29 -22 13 -13 34 -31
47 -40 55 -41 115 -88 134 -107 12 -12 26 -21 32 -21 6 0 17 -8 24 -18 7 -9
24 -23 38 -30 21 -10 56 -34 106 -69 5 -5 26 -16 45 -27 72 -39 105 -59 128
-77 13 -11 29 -19 36 -19 7 0 18 -7 26 -16 7 -9 30 -23 51 -31 21 -8 38 -19
38 -23 0 -5 17 -14 38 -21 20 -6 53 -20 72 -30 19 -11 42 -19 51 -19 9 0 28
-9 42 -20 14 -11 32 -20 39 -20 8 0 37 -11 63 -25 27 -13 63 -27 79 -31 17 -4
40 -13 51 -20 11 -7 42 -18 70 -24 27 -6 56 -17 65 -25 8 -7 46 -21 84 -30 38
-8 74 -20 80 -24 6 -5 34 -12 61 -16 28 -3 91 -14 140 -25 93 -19 329 -40 448
-40 104 0 255 19 322 40 33 10 73 21 89 25 16 3 41 15 54 26 14 10 30 19 36
19 6 0 34 16 61 35 28 20 67 48 89 63 74 52 81 57 125 97 95 86 398 392 404
408 3 9 13 17 21 17 8 0 18 9 21 20 3 11 10 20 15 20 5 0 59 51 119 113 61 61
115 117 121 122 6 6 59 59 118 118 59 59 133 133 165 165 31 31 83 84 115 116
127 131 235 236 243 236 5 0 9 5 9 10 0 10 223 241 415 431 50 49 110 110 135
134 52 52 71 55 107 19 l26 -26 -9 -352 c-5 -193 -9 -603 -9 -911 0 -483 3
-574 18 -664 9 -58 23 -112 31 -120 7 -9 19 -33 26 -54 6 -20 28 -56 48 -80
54 -62 151 -157 162 -157 5 0 16 -8 26 -18 20 -20 119 -59 184 -73 85 -19 231
-21 325 -6 103 17 204 53 223 79 7 10 22 18 32 18 23 0 170 143 170 165 0 7 8
20 18 27 10 7 22 28 25 46 4 18 17 46 29 63 l23 31 0 2061 0 2062 -21 40 c-12
23 -25 56 -29 74 -10 44 -61 125 -103 164 -7 7 -23 22 -34 35 -12 12 -25 22
-30 22 -5 0 -25 11 -46 24 -20 13 -52 27 -69 31 -18 4 -37 14 -42 23 -10 18
-88 20 -1241 36 -261 4 -531 11 -600 16 -69 6 -508 11 -975 12 l-850 3 -28
-21 c-15 -12 -47 -25 -71 -28 -24 -4 -51 -15 -61 -26 -9 -10 -27 -21 -41 -24
-13 -4 -24 -11 -24 -16 0 -5 -13 -16 -30 -25 -38 -20 -93 -75 -128 -128 -41
-64 -81 -159 -82 -191 0 -16 -8 -69 -17 -118 -16 -82 -16 -94 0 -175 9 -49 19
-108 22 -133 5 -42 36 -136 56 -170 5 -8 18 -32 29 -53 26 -48 174 -195 215
-214 16 -7 37 -17 45 -22 27 -17 114 -42 175 -52 33 -6 113 -19 178 -30 107
-17 169 -19 726 -19 358 0 620 -4 634 -9 30 -12 41 -40 32 -80 -7 -31 -65 -93
-309 -326 -81 -77 -161 -155 -179 -174 -18 -19 -304 -307 -637 -641 -688 -690
-625 -640 -784 -620 -49 6 -102 18 -118 26 -16 8 -54 19 -86 25 -31 6 -71 19
-88 30 -17 10 -40 19 -51 19 -11 0 -32 9 -46 20 -14 12 -41 26 -59 32 -18 6
-40 16 -48 23 -8 7 -32 19 -54 26 -21 8 -41 20 -43 26 -3 7 -13 13 -23 13 -9
0 -34 11 -54 25 -20 14 -40 25 -44 25 -8 0 -89 54 -111 75 -9 7 -29 25 -44 39
-15 14 -31 26 -35 26 -9 0 -27 17 -207 196 -88 88 -169 172 -180 187 -11 15
-26 34 -33 42 -25 28 -82 114 -82 124 0 6 -9 15 -19 21 -11 5 -23 20 -27 32
-3 13 -13 31 -21 40 -17 19 -45 69 -68 118 -8 19 -20 42 -25 50 -6 8 -13 22
-16 30 -4 8 -19 42 -35 76 -16 33 -29 66 -29 73 0 7 -9 24 -19 37 -11 14 -23
44 -26 67 -4 23 -14 46 -21 52 -8 5 -19 35 -24 66 -6 30 -19 73 -30 94 -11 22
-20 52 -20 68 0 16 -9 67 -20 113 -22 90 -49 444 -44 574 9 244 25 470 34 500
6 19 17 77 25 129 8 52 21 104 29 115 7 12 16 39 20 61 4 22 18 63 32 92 13
28 24 58 24 66 0 8 9 25 19 39 11 13 22 41 26 61 4 20 16 46 26 58 10 12 19
27 19 32 0 15 69 155 79 162 5 3 12 19 16 36 4 16 15 35 26 42 10 6 19 17 19
23 0 6 14 28 30 49 17 21 30 44 30 52 0 7 6 16 14 19 8 3 20 19 26 35 7 16 16
29 21 29 5 0 16 15 25 33 24 47 106 146 127 153 9 3 17 10 17 16 0 6 21 32 48
58 26 26 66 69 90 96 45 52 722 739 1562 1585 1092 1101 1120 1128 1255 1244
38 33 78 70 88 83 10 12 24 22 30 22 7 0 18 9 25 20 7 11 17 20 24 20 6 0 18
7 27 15 33 32 106 85 117 85 7 0 14 7 18 15 3 8 16 20 28 25 13 6 43 26 68 45
25 19 61 43 80 53 19 11 49 27 65 36 17 9 35 16 41 16 6 0 17 7 24 14 6 8 28
20 48 27 20 6 40 18 45 25 4 7 22 16 40 19 17 4 41 15 52 25 11 11 39 23 62
28 23 5 54 19 69 31 15 11 41 21 58 21 17 0 48 9 68 20 20 10 60 22 90 25 29
4 67 13 85 21 17 8 78 19 135 24 56 6 117 16 133 22 42 16 712 24 786 8 30 -6
90 -15 134 -21 128 -17 344 -63 398 -84 20 -8 48 -15 61 -15 13 0 44 -11 70
-25 26 -14 55 -25 65 -25 10 0 29 -8 42 -19 14 -10 41 -23 62 -29 20 -6 49
-20 63 -31 15 -12 34 -21 44 -21 10 0 28 -8 41 -18 13 -11 38 -24 54 -30 17
-5 55 -24 85 -41 30 -16 72 -37 93 -46 20 -10 37 -21 37 -25 0 -4 15 -17 33
-28 17 -12 50 -35 72 -51 22 -17 49 -35 60 -40 39 -18 222 -189 343 -322 68
-74 132 -143 143 -154 10 -12 19 -25 19 -30 0 -6 9 -16 20 -23 11 -7 20 -18
20 -26 0 -7 9 -21 19 -30 11 -10 27 -32 36 -49 9 -18 29 -52 45 -77 17 -25 36
-59 44 -76 8 -17 21 -36 29 -43 8 -6 18 -24 22 -38 3 -15 15 -33 25 -40 10 -7
22 -28 26 -46 3 -17 15 -43 25 -56 11 -13 19 -31 19 -40 0 -9 7 -29 16 -46 8
-16 22 -53 29 -81 7 -29 20 -65 28 -80 8 -16 18 -49 22 -74 4 -25 13 -56 20
-70 7 -14 19 -64 26 -110 6 -47 19 -96 27 -110 41 -66 40 -971 -1 -1046 -9
-16 -20 -69 -26 -118 -6 -49 -17 -98 -24 -110 -8 -12 -17 -43 -21 -71 -5 -27
-15 -66 -23 -85 -8 -19 -21 -57 -28 -85 -20 -74 -53 -166 -70 -197 -8 -14 -15
-33 -15 -41 0 -8 -11 -30 -24 -50 -13 -19 -27 -46 -31 -58 -4 -13 -15 -33 -25
-44 -17 -19 -26 -36 -67 -115 -26 -49 -70 -117 -82 -124 -5 -4 -12 -20 -16
-36 -4 -17 -15 -35 -26 -40 -10 -6 -19 -17 -19 -24 0 -8 -7 -20 -16 -27 -9 -8
-27 -30 -39 -49 -12 -19 -38 -53 -58 -75 -20 -22 -46 -53 -59 -68 -13 -15 -30
-36 -39 -46 -9 -10 -21 -26 -26 -35 -4 -8 -53 -62 -108 -119 -146 -151 -235
-259 -235 -286 0 -9 -9 -30 -19 -48 -40 -64 -56 -268 -55 -688 0 -515 13 -593
109 -698 14 -15 25 -32 25 -37 0 -6 6 -10 14 -10 8 0 27 -11 43 -24 15 -13 44
-27 63 -31 19 -4 47 -14 62 -21 15 -8 43 -14 62 -14 44 0 191 47 207 66 6 8
17 14 23 14 11 0 789 782 876 880 25 29 51 57 58 63 15 14 22 21 84 90 26 29
82 95 125 147 43 53 87 105 98 117 45 48 115 148 115 164 0 4 7 12 16 17 8 5
21 17 27 28 7 11 21 35 32 54 11 18 30 43 43 55 12 12 22 28 22 35 0 7 11 25
25 42 14 16 25 36 25 43 0 7 6 20 14 27 17 18 86 147 86 163 0 7 6 18 14 24 8
7 18 26 21 42 4 17 18 42 31 56 13 14 24 34 24 43 0 10 9 28 19 42 11 13 24
42 30 65 6 22 17 46 25 52 8 7 17 28 21 48 3 20 15 52 26 72 10 20 19 46 19
59 0 12 8 39 19 60 10 20 23 66 29 101 7 35 18 71 27 81 8 9 15 30 15 46 1 44
19 117 35 134 7 8 16 47 20 85 4 39 15 88 25 110 10 22 21 72 24 110 4 39 14
106 23 150 25 121 26 1026 1 1165 -9 52 -20 131 -24 174 -4 44 -15 98 -24 120
-10 23 -21 70 -25 105 -4 39 -14 74 -25 88 -12 16 -21 49 -26 94 -4 38 -10 69
-14 69 -10 0 -30 47 -30 73 -1 12 -8 40 -16 62 -9 22 -22 64 -29 93 -7 29 -18
58 -23 65 -5 7 -15 30 -22 52 -6 22 -23 62 -36 89 -13 28 -24 55 -24 62 0 6
-7 17 -15 24 -8 7 -20 31 -27 54 -7 22 -20 47 -30 54 -10 7 -18 21 -18 30 0
10 -11 34 -25 54 -14 20 -25 41 -25 47 0 5 -11 31 -25 57 -14 26 -25 53 -25
59 0 7 -6 15 -14 18 -8 3 -19 22 -26 41 -6 20 -16 36 -21 36 -5 0 -17 17 -27
38 -9 20 -25 43 -34 50 -10 7 -18 19 -18 26 0 7 -11 23 -25 36 -14 13 -25 31
-25 40 0 9 -9 25 -20 35 -11 10 -20 24 -20 31 0 7 -6 19 -13 26 -7 7 -22 27
-32 43 -11 17 -25 37 -32 45 -25 30 -74 86 -92 105 -11 11 -42 49 -70 85 -61
77 -63 79 -138 152 -32 32 -75 76 -97 98 -21 22 -42 40 -46 40 -5 0 -12 9 -15
20 -3 11 -13 20 -20 20 -8 0 -18 6 -22 13 -4 7 -33 33 -63 58 -55 44 -125 106
-165 144 -12 11 -32 26 -45 32 -14 7 -45 29 -70 48 -25 19 -52 38 -60 42 -8 4
-42 27 -75 52 -74 56 -89 66 -140 92 -22 12 -62 34 -90 50 -27 16 -66 36 -85
45 -19 9 -45 25 -59 35 -13 10 -32 19 -42 19 -10 0 -24 9 -31 20 -7 11 -17 20
-23 20 -6 0 -51 20 -100 45 -50 25 -108 50 -130 56 -22 6 -47 17 -55 24 -8 7
-33 16 -54 20 -22 3 -50 15 -63 25 -13 10 -40 21 -60 25 -21 3 -47 15 -58 25
-11 9 -38 21 -60 25 -22 3 -53 15 -70 25 -16 10 -50 21 -75 25 -25 4 -54 13
-65 20 -12 7 -53 18 -91 24 -39 6 -88 17 -110 24 -21 8 -72 17 -112 21 -40 4
-91 15 -115 25 -31 14 -81 20 -190 25 -100 5 -163 12 -190 23 -36 14 -101 17
-437 19 -217 1 -417 -1 -445 -6z" />
    <path
      d="M4670 9800 c-86 -19 -122 -50 -535 -464 -225 -227 -432 -436 -458
-464 -26 -29 -52 -52 -57 -52 -6 0 -10 -3 -10 -7 0 -5 -22 -30 -48 -58 -26
-27 -82 -93 -125 -145 -43 -52 -97 -117 -120 -144 -23 -27 -46 -56 -51 -65 -5
-9 -15 -20 -21 -26 -16 -14 -65 -93 -65 -104 0 -5 -11 -18 -24 -28 -13 -10
-26 -28 -30 -40 -4 -11 -15 -28 -26 -38 -11 -10 -20 -24 -20 -30 0 -7 -7 -19
-16 -26 -9 -8 -25 -32 -36 -54 -10 -22 -32 -62 -48 -90 -17 -27 -33 -57 -36
-65 -3 -8 -16 -37 -29 -65 -13 -27 -38 -81 -56 -120 -17 -38 -37 -77 -44 -85
-7 -8 -18 -35 -25 -60 -7 -25 -18 -52 -25 -60 -7 -8 -16 -31 -20 -50 -4 -19
-14 -48 -22 -64 -8 -15 -21 -53 -29 -84 -8 -31 -19 -61 -23 -66 -5 -6 -12 -37
-15 -68 -4 -31 -15 -67 -25 -80 -9 -13 -22 -56 -28 -96 -6 -41 -18 -81 -26
-90 -8 -9 -18 -46 -22 -82 -3 -36 -15 -92 -25 -125 -11 -33 -24 -118 -29 -190
-6 -71 -15 -154 -21 -184 -13 -68 -14 -644 -1 -703 5 -23 15 -97 21 -163 6
-66 19 -145 29 -175 11 -30 22 -84 26 -120 4 -36 13 -75 21 -87 7 -12 19 -55
25 -95 6 -40 19 -83 29 -96 10 -12 21 -46 25 -75 4 -28 13 -63 20 -77 7 -14
17 -47 23 -75 6 -27 20 -68 32 -90 11 -21 20 -47 20 -57 0 -9 4 -19 9 -23 5
-3 17 -29 27 -57 9 -29 25 -61 35 -71 9 -10 20 -31 24 -45 3 -14 15 -37 26
-50 10 -14 19 -32 19 -41 0 -9 6 -25 14 -36 7 -11 41 -73 75 -138 33 -64 77
-139 96 -165 19 -26 42 -62 50 -80 9 -17 19 -32 25 -32 5 0 26 -30 47 -68 20
-37 42 -71 49 -77 6 -5 15 -17 20 -26 5 -9 28 -38 51 -65 23 -27 67 -80 99
-119 31 -38 62 -77 69 -85 36 -43 387 -391 429 -425 27 -22 59 -50 71 -62 12
-13 27 -23 32 -23 6 0 17 -7 24 -16 14 -17 72 -58 115 -82 13 -7 24 -19 24
-25 0 -7 12 -18 28 -24 15 -7 47 -28 72 -48 25 -19 52 -38 60 -43 45 -22 131
-75 136 -83 3 -5 13 -9 23 -9 10 0 29 -10 42 -23 13 -13 39 -29 57 -36 17 -8
32 -17 32 -21 0 -5 17 -14 38 -20 20 -7 44 -19 53 -26 8 -8 31 -19 50 -25 19
-7 45 -20 58 -31 13 -10 30 -18 37 -18 13 0 54 -17 149 -61 22 -10 58 -23 80
-28 22 -6 54 -20 70 -31 17 -11 43 -20 58 -20 28 0 67 -16 77 -31 3 -4 33 -12
67 -18 34 -5 72 -16 85 -25 13 -8 46 -17 73 -21 28 -4 82 -15 120 -25 39 -10
104 -21 145 -25 41 -4 107 -13 145 -22 147 -31 1088 -34 1169 -3 16 6 84 17
152 25 68 8 148 21 176 29 29 8 76 18 103 22 28 4 61 12 75 19 14 7 52 18 85
25 33 7 71 21 84 31 13 11 34 19 47 19 13 0 44 11 70 25 26 14 55 25 65 25 11
0 43 12 71 27 106 53 124 61 155 67 17 4 37 13 43 21 6 8 24 16 39 20 16 3 43
17 62 31 18 13 37 24 42 24 5 0 22 11 39 25 16 14 35 25 42 25 7 0 21 9 31 20
10 11 23 20 29 20 10 0 21 7 140 86 91 61 100 68 123 89 12 11 34 29 49 40 14
11 34 27 43 35 9 8 38 32 64 54 27 21 70 60 96 87 27 27 53 49 59 49 6 0 13 9
17 19 3 11 15 23 26 26 10 4 19 10 19 15 0 4 16 23 36 42 19 18 165 162 324
320 159 159 293 288 299 288 5 0 12 9 16 19 3 11 15 23 26 26 10 4 19 11 19
16 0 8 180 191 894 909 19 19 146 145 281 280 136 134 251 252 256 262 5 10
14 18 18 18 8 0 66 56 158 151 41 43 49 51 98 99 22 22 45 44 50 50 6 6 25 25
44 43 19 18 39 38 45 45 6 8 43 46 81 85 83 84 175 194 175 208 0 5 8 17 18
27 29 29 64 141 72 232 11 123 2 284 -21 353 -10 31 -19 63 -19 70 -1 19 -54
119 -81 151 -67 80 -147 160 -174 173 -16 9 -33 21 -37 26 -25 40 -345 78
-482 59 -96 -14 -186 -42 -220 -69 -16 -13 -33 -23 -38 -23 -6 0 -24 -11 -42
-25 -17 -14 -41 -34 -54 -43 -12 -9 -163 -156 -335 -327 -173 -170 -428 -422
-568 -558 -140 -136 -402 -395 -584 -575 -181 -180 -347 -342 -367 -359 -21
-18 -38 -35 -38 -38 0 -3 -30 -35 -67 -71 -190 -183 -221 -214 -226 -228 -4
-9 -11 -16 -16 -16 -6 0 -65 -54 -131 -120 -66 -66 -124 -120 -130 -120 -5 0
-10 -6 -10 -14 0 -7 -10 -21 -23 -29 -12 -8 -41 -32 -63 -54 -97 -90 -197
-179 -213 -188 -10 -5 -24 -16 -32 -23 -8 -7 -32 -26 -54 -42 -22 -16 -46 -35
-54 -41 -39 -34 -102 -79 -110 -79 -4 0 -16 -9 -26 -20 -10 -11 -24 -20 -31
-20 -7 0 -25 -11 -41 -23 -15 -13 -41 -30 -58 -39 -16 -8 -39 -19 -50 -26 -43
-24 -150 -72 -162 -72 -7 0 -13 -4 -13 -10 0 -5 -24 -17 -54 -25 -30 -9 -60
-22 -66 -30 -7 -8 -28 -18 -48 -21 -20 -4 -57 -18 -81 -31 -24 -12 -59 -23
-78 -23 -19 0 -53 -9 -76 -19 -28 -13 -85 -23 -172 -30 -71 -6 -161 -15 -200
-22 -85 -13 -401 -7 -465 9 -25 6 -106 15 -181 20 -99 7 -143 13 -160 25 -13
10 -42 17 -64 17 -50 0 -100 14 -120 33 -7 8 -34 18 -59 21 -24 4 -50 13 -56
21 -6 8 -28 19 -48 26 -20 6 -51 20 -68 30 -17 11 -38 19 -46 19 -9 0 -26 8
-39 19 -13 10 -42 24 -64 31 -22 7 -44 19 -48 26 -4 8 -16 14 -27 14 -10 0
-31 10 -47 23 -15 12 -40 28 -55 35 -16 6 -28 16 -28 22 0 5 -6 10 -13 10 -12
0 -55 32 -103 77 -13 12 -33 24 -44 28 -11 3 -20 10 -20 15 0 5 -14 17 -31 26
-36 18 -285 267 -360 359 -27 33 -55 67 -62 75 -7 8 -24 33 -38 55 -14 22 -34
53 -45 69 -10 16 -23 36 -29 45 -5 9 -20 29 -32 44 -13 16 -23 37 -23 47 0 11
-9 24 -20 30 -11 6 -20 17 -20 24 0 7 -13 33 -30 57 -16 24 -30 54 -30 65 0
12 -7 27 -15 34 -8 7 -20 31 -26 54 -6 22 -19 59 -30 82 -10 22 -19 48 -19 58
0 10 -8 33 -19 50 -10 17 -22 53 -26 80 -3 27 -15 65 -25 85 -10 20 -22 63
-26 96 -3 33 -13 73 -22 90 -22 44 -31 245 -26 559 4 209 8 277 20 310 9 22
20 73 25 111 6 39 18 86 28 105 10 20 22 56 26 80 4 25 16 59 26 76 10 17 19
40 19 50 0 10 9 36 19 58 11 23 24 60 30 82 6 23 18 47 25 53 8 7 17 30 21 52
4 23 14 43 26 49 10 6 19 19 19 30 0 10 10 31 23 47 12 15 28 39 35 53 7 14
26 45 42 70 17 25 38 61 48 80 22 45 52 90 75 112 9 10 17 22 17 28 0 5 12 23
28 39 15 17 36 42 47 57 62 82 165 196 334 369 144 148 240 252 284 305 35 44
65 122 77 200 16 100 16 79 1 210 -7 58 -21 132 -31 165 -11 33 -22 78 -26
100 -4 22 -12 51 -19 65 -7 14 -16 48 -20 75 -4 28 -18 73 -31 101 -13 28 -24
59 -24 68 0 9 -8 33 -19 54 -10 20 -22 57 -26 82 -4 25 -15 55 -25 67 -10 13
-21 38 -24 57 -8 40 -50 120 -87 163 -14 17 -52 45 -85 62 -48 25 -70 31 -119
30 -33 -1 -76 -5 -95 -9z" />
  </g>
</svg>